<svg width="800" height="800" viewBox="0 0 800 800" fill="none" xmlns="http://www.w3.org/2000/svg">
<path d="M473.871 241.235C469.448 233.294 460.601 228 450.869 228H349.131C339.399 228 330.552 233.294 326.129 241.235C280.125 320.647 250.931 372.706 204.927 452.118C200.504 460.059 197.85 473.294 202.273 481.235L249.161 562.412C253.585 570.353 265.086 573 274.817 573H342.053C357.093 573 368.594 561.529 368.594 546.529V527.118C368.594 512.118 357.093 500.647 342.053 500.647H306.666C286.318 500.647 273.048 478.588 283.664 460.941L376.556 300.353C387.172 282.706 411.943 282.706 422.559 300.353L515.451 460.941C526.067 478.588 512.797 500.647 492.449 500.647H458.831C443.792 500.647 432.291 512.118 432.291 527.118V546.529C432.291 561.529 443.792 573 458.831 573H526.067C535.799 573 546.415 570.353 551.723 562.412L597.727 483C602.15 475.059 599.496 461.824 595.073 453.882L473.871 241.235Z" fill="#4E3CDB"/>
<path d="M407.52 378.882C404.866 373.588 396.904 373.588 394.25 378.882L360.632 438C357.978 443.294 361.516 449.471 367.709 449.471H435.83C442.022 449.471 445.561 443.294 442.907 438L407.52 378.882Z" fill="#4E3CDB"/>
</svg>
